# xmcd CD database file
# Generated: Tue May 20 16:55:54 2003 by KSCD
# 
# Track frame offsets:
#       150
#       12940
#       26496
#       40008
#       52493
#       65551
#       75594
#       91543
#       106571
#       115642
#       133776
#       145354
#       159381
#       172770
#       186495
#       199884
#       216384
#       230197
#       244266
#       253123
#       266064
#       278688
#       290083
#       299225
#       310577
#       324523
#
# Disc length: 4445 seconds
#
# Revision: 1
# Processed by: cddbd v1.4PL0 Copyright (c) Steve Scherf et al.
# Submitted via: Kscd 1.3.3
#
DISCID=89115b1a
DTITLE=T E Ford - Eight
DYEAR=1900
DGENRE=
TTITLE0=
TTITLE1=
TTITLE2=
TTITLE3=
TTITLE4=
TTITLE5=
TTITLE6=
TTITLE7=Eight
TTITLE8=
TTITLE9=
TTITLE10=
TTITLE11=
TTITLE12=
TTITLE13=
TTITLE14=
TTITLE15=
TTITLE16=
TTITLE17=
TTITLE18=
TTITLE19=
TTITLE20=
TTITLE21=
TTITLE22=
TTITLE23=
TTITLE24=
TTITLE25=
EXTD=
EXTT0=
EXTT1=
EXTT2=
EXTT3=
EXTT4=
EXTT5=
EXTT6=
EXTT7=
EXTT8=
EXTT9=
EXTT10=
EXTT11=
EXTT12=
EXTT13=
EXTT14=
EXTT15=
EXTT16=
EXTT17=
EXTT18=
EXTT19=
EXTT20=
EXTT21=
EXTT22=
EXTT23=
EXTT24=
EXTT25=
PLAYORDER=
